<svg xmlns="http://www.w3.org/2000/svg" width="90" height="100" viewBox="0 0 90 100">
    <g fill="none" fill-rule="evenodd">
        <g>
            <g>
                <g transform="translate(-540 -282) translate(375 242) translate(165 40)">
                    <path fill="#80E3D7" d="M45 0c4.805 0 8.752 1.51 11.841 4.53L90 35.405v53.752H0V35.405L33.182 4.53C36.256 1.51 40.195 0 45 0z"/>
                    <rect width="72" height="72" x="9" y="11.4" fill="#E0F8F5" rx="6.864"/>
                    <path fill="#B3EEE7" d="M0 35.466L33.195 68.267 56.822 68.267 90 35.466 90 99.153 0 99.153z"/>
                    <path fill="#80E3D7" d="M45 63.747c4.805 0 8.752 1.51 11.841 4.53L90 99.153H0l33.182-30.876c3.074-3.02 7.013-4.53 11.818-4.53z"/>
                    <path fill="#00C7AE" fill-rule="nonzero" d="M44.35 51.9c2.038 0 3.873-.433 5.605-1.401l-.84-2.09c-1.224.688-2.905 1.173-4.459 1.173-4.636 0-8.509-2.854-8.509-8.536 0-6.573 4.917-10.828 9.91-10.828 5.554 0 7.923 3.593 7.923 7.899 0 3.312-1.809 5.4-3.567 5.4-1.375 0-1.834-.865-1.375-2.725l1.248-6.217h-2.318l-.408 1.198h-.05c-.485-.994-1.249-1.427-2.217-1.427-3.312 0-5.757 3.592-5.757 6.98 0 2.65 1.528 4.281 3.719 4.281 1.197 0 2.65-.79 3.49-1.936h.051c.28 1.426 1.605 2.19 3.235 2.19 2.93 0 6.369-2.649 6.369-7.872 0-5.936-3.898-10.089-10.037-10.089-6.904 0-12.763 5.274-12.763 13.248 0 7.21 4.993 10.752 10.75 10.752zm-.305-8.662c-.994 0-1.682-.688-1.682-2.115 0-1.86 1.172-4.331 3.032-4.331.637 0 1.12.305 1.503.942l-.739 4.077c-.815 1.019-1.452 1.427-2.114 1.427z"/>
                </g>
            </g>
        </g>
    </g>
</svg>
